# xmcd
#
# Track frame offsets:
#	150
#	12215
#	26017
#	41605
#	54290
#	67627
#	81380
#	92457
#	105232
#	116802
#	128480
#	139925
#	153507
#	166312
#	177835
#	190690
#	200315
#	216202
#	227517
#	237382
#
# Disc length: 3298
#
# Revision: 1
# Processed by: cddbd v1.5.1PL0 Copyright (c) Steve Scherf et al.
# Submitted via: VisiTrax 2.9.5.180 - For more info visit www.synapsa.com
# Normalized: r0:DSETVAR1
#
DISCID=f90ce014
DTITLE=Various Artist - Just Country 40 Golden Greats disc 2
DYEAR=1996
DGENRE=
TTITLE0=Kenny Rogers - Me and Bobby McGee
TTITLE1=George Jones - A good year for the roses
TTITLE2=Don Gibson - Sweet dreams
TTITLE3=Don Williams - There's never been a time
TTITLE4=Bobby Bare - Detroit city
TTITLE5=Willie Nelson - A moment isn't very long
TTITLE6=Faron Young - Wine me up
TTITLE7=Hank Thompson - I recall a gypsy woman
TTITLE8=Johnny Paycheck - Release me
TTITLE9=Del Shannon - I can't help it
TTITLE10=Waylon Jennings - Sally was an good old girl
TTITLE11=David Houston - Almost persuaded
TTITLE12=Billy Walker - Funny how times slips away
TTITLE13=Roy Clark - The most beautiful girl in the world
TTITLE14=Roger Miller - Heartaches by the number
TTITLE15=Warner Mack - The bridge washed out
TTITLE16=Johnny Russell - Luckenbach Texas
TTITLE17=Conway Twitty - It's only make believe
TTITLE18=George Jones - Gene Pitney - Don't rob another mans castle
TTITLE19=Porter Wagoner - Green green grass og home
EXTD=
EXTT0=
EXTT1=
EXTT2=
EXTT3=
EXTT4=
EXTT5=
EXTT6=
EXTT7=
EXTT8=
EXTT9=
EXTT10=
EXTT11=
EXTT12=
EXTT13=
EXTT14=
EXTT15=
EXTT16=
EXTT17=
EXTT18=
EXTT19=
PLAYORDER=
